<svg xmlns="http://www.w3.org/2000/svg" width="805" height="600"><rect width="805" height="600" x="0" y="0" fill="#FFFFFF" id="background"/><g transform="translate(402.5,300)" id="viz"><path fill="#1f77b4" display="" d="M0.9999920729479259,-142.9965035091909A143,143,0,0,1,124.3386007277839,70.63223321583948L63.28086503245498,35.380533076032314A72.5,72.5,0,0,0,0.9999920729479103,-72.49310322957655Z"><title>informational</title></path><path fill="#1f77b4" display="" d="M123.33860865483601,72.36427029335137A143,143,0,0,1,-123.33860865483595,72.36427029335144L-62.280872959507064,37.11257015354423A72.5,72.5,0,0,0,62.28087295950707,37.112570153544205Z"><title>conceptual</title></path><path fill="#1f77b4" display="" d="M-124.33860072778387,70.63223321583953A143,143,0,0,1,-0.9999920729478798,-142.9965035091909L-0.9999920729479354,-72.49310322957655A72.5,72.5,0,0,0,-63.28086503245495,35.380533076032364Z"><title>indexical</title></path><path fill="#1f77b4" display="" d="M0.9999920729479191,-215.49767983867955A215.5,215.5,0,0,1,186.1264691604282,-108.61485845809574L125.0707012296101,-73.36429440765859A145,145,0,0,0,0.9999920729479153,-144.99655173780528Z"><title>format</title></path><path fill="#1f77b4" display="" d="M187.1264612333761,-106.88282138058385A215.5,215.5,0,0,1,187.12646123337612,106.88282138058379L126.07069330255803,71.63225733014667A145,145,0,0,0,126.07069330255801,-71.6322573301467Z"><title>food</title></path><path fill="#1f77b4" display="" d="M186.1264691604282,108.6148584580957A215.5,215.5,0,0,1,0.9999920729479191,215.49767983867955L0.9999920729479153,144.99655173780528A145,145,0,0,0,125.07070122961011,73.36429440765858Z"><title>cultural symbols</title></path><path fill="#1f77b4" display="" d="M-0.9999920729478926,215.49767983867955A215.5,215.5,0,0,1,-186.12646916042817,108.61485845809581L-125.0707012296101,73.3642944076586A145,145,0,0,0,-0.9999920729478974,144.99655173780528Z"><title>nature</title></path><path fill="#1f77b4" display="" d="M-187.12646123337606,106.8828213805839A215.5,215.5,0,0,1,-187.1264612333762,-106.8828213805837L-126.07069330255804,-71.63225733014663A145,145,0,0,0,-126.07069330255798,71.63225733014677Z"><title>romanized</title></path><path fill="#1f77b4" display="" d="M-186.1264691604283,-108.6148584580956A215.5,215.5,0,0,1,-0.9999920729479456,-215.49767983867955L-0.9999920729479007,-144.99655173780528A145,145,0,0,0,-125.07070122961018,-73.36429440765848Z"><title>names</title></path><path fill="#1f77b4" display="" d="M0.9999920729479248,-287.99826391118063A288,288,0,0,1,24.10451580001053,-286.989498619805L17.959986890499533,-216.75721180826505A217.5,217.5,0,0,0,0.9999920729479188,-217.49770117372285Z"><title>buffet</title></path><path fill="#1f77b4" display="" d="M26.09688940241949,-286.8151885160859A288,288,0,0,1,49.02557375302636,-283.7965699549355L36.783279509173724,-214.36706917936348A217.5,217.5,0,0,0,19.952360492908486,-216.58290170454598Z"><title>express</title></path><path fill="#1f77b4" display="" d="M50.995173645806055,-283.44927635263787A288,288,0,0,1,73.5735174873308,-278.44377803165474L55.32662916043162,-210.34546371563155A217.5,217.5,0,0,0,38.752879401953415,-214.0197755770659Z"><title>wok</title></path><path fill="#1f77b4" display="" d="M75.50535382602024,-277.92614404479383A288,288,0,0,1,97.56152232865225,-270.9718608286032L73.44890975664661,-204.72300226296014A217.5,217.5,0,0,0,57.25846549912108,-209.82782972877064Z"><title>kitchen</title></path><path fill="#1f77b4" display="" d="M99.44089267223934,-270.2878259643748A288,288,0,0,1,120.80702507579475,-261.4376841473629L91.01219979994923,-197.5424751479391A217.5,217.5,0,0,0,75.32828010023373,-204.03896739873178Z"><title>house</title></path><path fill="#1f77b4" display="" d="M122.61962628116997,-260.59245432411547A288,288,0,0,1,143.13311341683436,-249.91380882937148L107.88283204810547,-188.85853051763448A217.5,217.5,0,0,0,92.82480100532445,-196.6972453246916Z"><title>cafe</title></path><path fill="#1f77b4" display="" d="M144.86515049434627,-248.91381675642359A288,288,0,0,1,164.36987233863502,-236.4879385241049L123.93241080294064,-178.73725843419206A217.5,217.5,0,0,0,109.61486912561737,-187.85853844468656Z"><title>chef</title></path><path fill="#1f77b4" display="" d="M166.00816344029113,-235.34079474494342A288,288,0,0,1,184.35567728269615,-221.26225221134848L139.03878907912977,-167.25568788955806A217.5,217.5,0,0,0,125.57070190459676,-177.59011465503056Z"><title>gourmet</title></path><path fill="#1f77b4" display="" d="M185.8877540239857,-219.97668718279715A288,288,0,0,1,202.9384242056345,-204.35262655746303L153.0869982165105,-154.501200568339A217.5,217.5,0,0,0,140.57086582041933,-165.97012286100673Z"><title>bistro</title></path><path fill="#1f77b4" display="" d="M204.35262655746303,-202.93842420563448A288,288,0,0,1,219.97668718279715,-185.88775402398568L165.97012286100676,-140.5708658204193A217.5,217.5,0,0,0,154.501200568339,-153.0869982165105Z"><title>grill</title></path><path fill="#1f77b4" display="" d="M221.2622522113485,-184.35567728269612A288,288,0,0,1,235.34079474494342,-166.00816344029113L177.59011465503056,-125.57070190459673A217.5,217.5,0,0,0,167.2556878895581,-139.03878907912977Z"><title>inn</title></path><path fill="#1f77b4" display="" d="M236.48793852410492,-164.369872338635A288,288,0,0,1,248.91381675642356,-144.8651504943463L187.85853844468653,-109.61486912561737A217.5,217.5,0,0,0,178.73725843419209,-123.93241080294061Z"><title>super</title></path><path fill="#1f77b4" display="" d="M249.91380882937148,-143.13311341683436A288,288,0,0,1,260.59245432411547,-122.61962628117001L196.6972453246916,-92.82480100532447A217.5,217.5,0,0,0,188.85853051763445,-107.88283204810548Z"><title>wok</title></path><path fill="#1f77b4" display="" d="M261.4376841473629,-120.8070250757948A288,288,0,0,1,270.2878259643748,-99.44089267223939L204.03896739873176,-75.32828010023375A217.5,217.5,0,0,0,197.54247514793906,-91.01219979994926Z"><title>rice</title></path><path fill="#1f77b4" display="" d="M270.97186082860316,-97.56152232865229A288,288,0,0,1,277.9261440447938,-75.50535382602035L209.8278297287706,-57.25846549912115A217.5,217.5,0,0,0,204.7230022629601,-73.44890975664666Z"><title>noodle</title></path><path fill="#1f77b4" display="" d="M278.44377803165474,-73.57351748733092A288,288,0,0,1,283.44927635263787,-50.99517364580617L214.0197755770659,-38.75287940195349A217.5,217.5,0,0,0,210.34546371563152,-55.32662916043171Z"><title>hot</title></path><path fill="#1f77b4" display="" d="M283.7965699549354,-49.02557375302647A288,288,0,0,1,286.81518851608587,-26.096889402419663L216.58290170454598,-19.952360492908618A217.5,217.5,0,0,0,214.36706917936345,-36.7832795091738Z"><title>yummy</title></path><path fill="#1f77b4" display="" d="M286.989498619805,-24.104515800010713A288,288,0,0,1,287.99826391118063,-0.999992072948096L217.49770117372285,-0.999992072948049A217.5,217.5,0,0,0,216.75721180826505,-17.959986890499664Z"><title>roll</title></path><path fill="#1f77b4" display="" d="M287.99826391118063,0.9999920729477123A288,288,0,0,1,286.98949861980503,24.10451580001033L216.75721180826508,17.959986890499376A217.5,217.5,0,0,0,217.49770117372285,0.9999920729477593Z"><title>bbq</title></path><path fill="#1f77b4" display="" d="M286.8151885160859,26.09688940241928A288,288,0,0,1,283.7965699549355,49.025573753026094L214.36706917936348,36.78327950917352A217.5,217.5,0,0,0,216.582901704546,19.95236049290833Z"><title>seafood</title></path><path fill="#1f77b4" display="" d="M283.4492763526379,50.99517364580579A288,288,0,0,1,278.4437780316548,73.57351748733053L210.3454637156316,55.32662916043143A217.5,217.5,0,0,0,214.01977557706593,38.75287940195321Z"><title>hibachi</title></path><path fill="#1f77b4" display="" d="M277.9261440447939,75.50535382601998A288,288,0,0,1,270.97186082860327,97.56152232865192L204.72300226296022,73.44890975664639A217.5,217.5,0,0,0,209.8278297287707,57.258465499120874Z"><title>tasty</title></path><path fill="#1f77b4" display="" d="M270.287825964375,99.44089267223903A288,288,0,0,1,261.43768414736303,120.8070250757945L197.54247514793914,91.01219979994903A217.5,217.5,0,0,0,204.03896739873187,75.32828010023348Z"><title>bao</title></path><path fill="#1f77b4" display="" d="M260.5924543241156,122.61962628116973A288,288,0,0,1,249.91380882937165,143.1331134168341L188.85853051763456,107.88283204810529A217.5,217.5,0,0,0,196.69724532469172,92.82480100532425Z"><title>chopsticks</title></path><path fill="#1f77b4" display="" d="M248.91381675642359,144.8651504943462A288,288,0,0,1,236.48793852410495,164.36987233863493L178.7372584341921,123.93241080294057A217.5,217.5,0,0,0,187.85853844468656,109.61486912561735Z"><title>panda</title></path><path fill="#1f77b4" display="" d="M235.34079474494345,166.00816344029107A288,288,0,0,1,221.26225221134857,184.35567728269606L167.25568788955815,139.03878907912969A217.5,217.5,0,0,0,177.5901146550306,125.57070190459672Z"><title>dragon</title></path><path fill="#1f77b4" display="" d="M219.9766871827972,185.88775402398562A288,288,0,0,1,204.3526265574631,202.93842420563442L154.50120056833907,153.0869982165104A217.5,217.5,0,0,0,165.9701228610068,140.57086582041924Z"><title>golden</title></path><path fill="#1f77b4" display="" d="M202.93842420563462,204.3526265574629A288,288,0,0,1,185.88775402398582,219.97668718279704L140.5708658204194,165.97012286100664A217.5,217.5,0,0,0,153.08699821651055,154.50120056833893Z"><title>star</title></path><path fill="#1f77b4" display="" d="M184.3556772826963,221.2622522113484A288,288,0,0,1,166.0081634402913,235.34079474494328L125.57070190459689,177.59011465503048A217.5,217.5,0,0,0,139.03878907912986,167.255687889558Z"><title>happy</title></path><path fill="#1f77b4" display="" d="M164.3698723386352,236.4879385241048A288,288,0,0,1,144.8651504943465,248.91381675642344L109.61486912561752,187.85853844468647A217.5,217.5,0,0,0,123.93241080294075,178.737258434192Z"><title>lucky</title></path><path fill="#1f77b4" display="" d="M143.1331134168346,249.91380882937136A288,288,0,0,1,122.6196262811702,260.59245432411535L92.82480100532462,196.69724532469155A217.5,217.5,0,0,0,107.88283204810563,188.85853051763436Z"><title>jade</title></path><path fill="#1f77b4" display="" d="M120.80702507579498,261.4376841473628A288,288,0,0,1,99.44089267223958,270.28782596437475L75.3282801002339,204.03896739873173A217.5,217.5,0,0,0,91.0121997999494,197.54247514793897Z"><title>ming</title></path><path fill="#1f77b4" display="" d="M97.56152232865247,270.9718608286031A288,288,0,0,1,75.50535382602057,277.9261440447938L57.25846549912131,209.82782972877055A217.5,217.5,0,0,0,73.4489097566468,204.72300226296005Z"><title>fortune</title></path><path fill="#1f77b4" display="" d="M73.5735174873311,278.4437780316547A288,288,0,0,1,50.99517364580637,283.4492763526378L38.75287940195365,214.01977557706587A217.5,217.5,0,0,0,55.326629160431864,210.34546371563152Z"><title>moon</title></path><path fill="#1f77b4" display="" d="M49.02557375302667,283.7965699549354A288,288,0,0,1,26.096889402419873,286.8151885160858L19.952360492908777,216.58290170454595A217.5,217.5,0,0,0,36.78327950917396,214.36706917936343Z"><title>oriental</title></path><path fill="#1f77b4" display="" d="M24.104515800010915,286.9894986198049A288,288,0,0,1,0.9999920729483084,287.99826391118063L0.9999920729482086,217.49770117372285A217.5,217.5,0,0,0,17.95998689049982,216.75721180826503Z"><title>grand</title></path><path fill="#1f77b4" display="" d="M-0.9999920729478896,287.99826391118063A288,288,0,0,1,-24.1045158000105,286.989498619805L-17.959986890499508,216.75721180826508A217.5,217.5,0,0,0,-0.999992072947892,217.49770117372285Z"><title>garden</title></path><path fill="#1f77b4" display="" d="M-26.096889402419457,286.8151885160859A288,288,0,0,1,-49.025573753026265,283.7965699549355L-36.78327950917365,214.36706917936348A217.5,217.5,0,0,0,-19.95236049290846,216.582901704546Z"><title>panda</title></path><path fill="#1f77b4" display="" d="M-50.99517364580596,283.44927635263787A288,288,0,0,1,-73.5735174873307,278.4437780316548L-55.32662916043155,210.34546371563158A217.5,217.5,0,0,0,-38.752879401953344,214.0197755770659Z"><title>dragon</title></path><path fill="#1f77b4" display="" d="M-75.50535382602015,277.92614404479383A288,288,0,0,1,-97.56152232865207,270.9718608286032L-73.44890975664651,204.7230022629602A217.5,217.5,0,0,0,-57.25846549912101,209.82782972877067Z"><title>golden</title></path><path fill="#1f77b4" display="" d="M-99.44089267223919,270.28782596437486A288,288,0,0,1,-120.80702507579461,261.437684147363L-91.01219979994916,197.5424751479391A217.5,217.5,0,0,0,-75.32828010023361,204.0389673987318Z"><title>star</title></path><path fill="#1f77b4" display="" d="M-122.61962628116983,260.5924543241156A288,288,0,0,1,-143.13311341683416,249.91380882937156L-107.88283204810539,188.8585305176345A217.5,217.5,0,0,0,-92.82480100532429,196.6972453246917Z"><title>jade</title></path><path fill="#1f77b4" display="" d="M-144.86515049434607,248.91381675642367A288,288,0,0,1,-164.3698723386348,236.48793852410506L-123.93241080294051,178.73725843419214A217.5,217.5,0,0,0,-109.6148691256172,187.85853844468667Z"><title>moon</title></path><path fill="#1f77b4" display="" d="M-166.00816344029093,235.34079474494357A288,288,0,0,1,-184.35567728269592,221.26225221134868L-139.03878907912963,167.2556878895582A217.5,217.5,0,0,0,-125.57070190459656,177.5901146550307Z"><title>bamboo</title></path><path fill="#1f77b4" display="" d="M-185.88775402398548,219.97668718279735A288,288,0,0,1,-202.9384242056343,204.35262655746322L-153.08699821651035,154.50120056833913A217.5,217.5,0,0,0,-140.5708658204191,165.9701228610069Z"><title>sun</title></path><path fill="#1f77b4" display="" d="M-204.35262655746283,202.9384242056347A288,288,0,0,1,-219.97668718279695,185.88775402398593L-165.97012286100662,140.57086582041944A217.5,217.5,0,0,0,-154.50120056833882,153.08699821651066Z"><title>lotus</title></path><path fill="#1f77b4" display="" d="M-221.26225221134828,184.35567728269638A288,288,0,0,1,-235.34079474494322,166.0081634402914L-177.59011465503045,125.57070190459693A217.5,217.5,0,0,0,-167.2556878895579,139.03878907912997Z"><title>pearl</title></path><path fill="#1f77b4" display="" d="M-236.48793852410475,164.36987233863528A288,288,0,0,1,-248.9138167564234,144.86515049434658L-187.85853844468645,109.61486912561756A217.5,217.5,0,0,0,-178.7372584341919,123.93241080294088Z"><title>ocean</title></path><path fill="#1f77b4" display="" d="M-249.91380882937142,143.13311341683448A288,288,0,0,1,-260.5924543241154,122.6196262811701L-196.69724532469158,92.82480100532449A217.5,217.5,0,0,0,-188.8585305176344,107.8828320481056Z"><title>chen</title></path><path fill="#1f77b4" display="" d="M-261.43768414736286,120.80702507579488A288,288,0,0,1,-270.2878259643748,99.44089267223947L-204.03896739873176,75.32828010023378A217.5,217.5,0,0,0,-197.542475147939,91.01219979994936Z"><title>sun</title></path><path fill="#1f77b4" display="" d="M-270.97186082860316,97.56152232865237A288,288,0,0,1,-277.9261440447938,75.50535382602045L-209.8278297287706,57.25846549912117A217.5,217.5,0,0,0,-204.72300226296008,73.44890975664677Z"><title>chow</title></path><path fill="#1f77b4" display="" d="M-278.4437780316547,73.573517487331A288,288,0,0,1,-283.44927635263787,50.99517364580626L-214.0197755770659,38.75287940195352A217.5,217.5,0,0,0,-210.34546371563152,55.32662916043183Z"><title>ling</title></path><path fill="#1f77b4" display="" d="M-283.7965699549354,49.02557375302656A288,288,0,0,1,-286.81518851608587,26.096889402419766L-216.58290170454598,19.952360492908646A217.5,217.5,0,0,0,-214.36706917936343,36.78327950917392Z"><title>kung</title></path><path fill="#1f77b4" display="" d="M-286.9894986198049,24.10451580001081A288,288,0,0,1,-287.99826391118063,0.9999920729481981L-217.49770117372285,0.9999920729480769A217.5,217.5,0,0,0,-216.75721180826505,17.95998689049979Z"><title>chung</title></path><path fill="#1f77b4" display="" d="M-287.99826391118063,-0.9999920729476162A288,288,0,0,1,-286.98949861980503,-24.104515800010223L-216.75721180826508,-17.95998689049935A217.5,217.5,0,0,0,-217.49770117372285,-0.9999920729476374Z"><title>tung</title></path><path fill="#1f77b4" display="" d="M-286.8151885160859,-26.096889402419187A288,288,0,0,1,-283.79656995493553,-49.025573753026L-214.36706917936348,-36.78327950917349A217.5,217.5,0,0,0,-216.582901704546,-19.95236049290821Z"><title>liang</title></path><path fill="#1f77b4" display="" d="M-283.449276352638,-50.99517364580569A288,288,0,0,1,-278.44377803165486,-73.57351748733045L-210.34546371563164,-55.32662916043141A217.5,217.5,0,0,0,-214.01977557706596,-38.752879401953095Z"><title>hung</title></path><path fill="#1f77b4" display="" d="M-277.9261440447939,-75.5053538260199A288,288,0,0,1,-270.9718608286033,-97.56152232865182L-204.72300226296022,-73.44890975664637A217.5,217.5,0,0,0,-209.82782972877072,-57.25846549912077Z"><title>peng</title></path><path fill="#1f77b4" display="" d="M-270.287825964375,-99.44089267223893A288,288,0,0,1,-261.43768414736314,-120.80702507579436L-197.54247514793917,-91.01219979994897A217.5,217.5,0,0,0,-204.0389673987319,-75.32828010023337Z"><title>shen</title></path><path fill="#1f77b4" display="" d="M-260.59245432411564,-122.61962628116957A288,288,0,0,1,-249.9138088293717,-143.13311341683396L-188.85853051763462,-107.88283204810521A217.5,217.5,0,0,0,-196.69724532469178,-92.8248010053241Z"><title>gao</title></path><path fill="#1f77b4" display="" d="M-248.91381675642367,-144.86515049434607A288,288,0,0,1,-236.48793852410506,-164.3698723386348L-178.73725843419214,-123.93241080294051A217.5,217.5,0,0,0,-187.85853844468667,-109.6148691256172Z"><title>lee</title></path><path fill="#1f77b4" display="" d="M-235.34079474494357,-166.00816344029093A288,288,0,0,1,-221.26225221134868,-184.35567728269592L-167.2556878895582,-139.03878907912963A217.5,217.5,0,0,0,-177.5901146550307,-125.57070190459656Z"><title>chen</title></path><path fill="#1f77b4" display="" d="M-219.97668718279735,-185.88775402398548A288,288,0,0,1,-204.35262655746322,-202.9384242056343L-154.50120056833913,-153.08699821651035A217.5,217.5,0,0,0,-165.9701228610069,-140.5708658204191Z"><title>wong</title></path><path fill="#1f77b4" display="" d="M-202.93842420563473,-204.3526265574628A288,288,0,0,1,-185.88775402398596,-219.97668718279692L-140.57086582041953,-165.97012286100656A217.5,217.5,0,0,0,-153.0869982165107,-154.50120056833882Z"><title>lin</title></path><path fill="#1f77b4" display="" d="M-184.3556772826964,-221.26225221134828A288,288,0,0,1,-166.0081634402914,-235.34079474494322L-125.57070190459703,-177.5901146550304A217.5,217.5,0,0,0,-139.03878907912994,-167.25568788955795Z"><title>chang</title></path><path fill="#1f77b4" display="" d="M-164.3698723386353,-236.48793852410472A288,288,0,0,1,-144.8651504943466,-248.91381675642336L-109.61486912561766,-187.85853844468636A217.5,217.5,0,0,0,-123.93241080294081,-178.73725843419194Z"><title>chan</title></path><path fill="#1f77b4" display="" d="M-143.1331134168347,-249.91380882937128A288,288,0,0,1,-122.61962628117034,-260.5924543241153L-92.82480100532477,-196.69724532469147A217.5,217.5,0,0,0,-107.8828320481057,-188.85853051763434Z"><title>wang</title></path><path fill="#1f77b4" display="" d="M-120.80702507579512,-261.43768414736275A288,288,0,0,1,-99.44089267223973,-270.2878259643747L-75.32828010023407,-204.03896739873164A217.5,217.5,0,0,0,-91.01219979994947,-197.54247514793894Z"><title>chow</title></path><path fill="#1f77b4" display="" d="M-97.56152232865263,-270.97186082860304A288,288,0,0,1,-75.50535382602071,-277.9261440447937L-57.25846549912146,-209.82782972877052A217.5,217.5,0,0,0,-73.44890975664687,-204.72300226296005Z"><title>yang</title></path><path fill="#1f77b4" display="" d="M-73.57351748733127,-278.44377803165463A288,288,0,0,1,-50.99517364580654,-283.4492763526378L-38.75287940195383,-214.01977557706584A217.5,217.5,0,0,0,-55.32662916043193,-210.3454637156315Z"><title>ling</title></path><path fill="#1f77b4" display="" d="M-49.02557375302684,-283.79656995493536A288,288,0,0,1,-26.096889402420036,-286.8151885160858L-19.952360492908948,-216.58290170454595A217.5,217.5,0,0,0,-36.78327950917404,-214.3670691793634Z"><title>master</title></path><path fill="#1f77b4" display="" d="M-24.10451580001108,-286.9894986198049A288,288,0,0,1,-0.9999920729484716,-287.99826391118063L-0.9999920729483801,-217.49770117372285A217.5,217.5,0,0,0,-17.959986890499895,-216.75721180826503Z"><title>kam</title></path></g><g id="labels" transform="translate(402.5,300)" text-anchor="middle"><text transform="rotate(90) translate(36.25,0) rotate(180)"><tspan x="0" y="4" style="font-family: Arial, sans-serif; font-size: 10px; fill: black; font-weight: normal; font-style: italic;"/></text><text transform="rotate(-30.000000000000007) translate(108.75,0) rotate(0)"><tspan x="0" y="4" style="font-family: Arial, sans-serif; font-size: 10px; fill: black; font-weight: normal; font-style: italic;">informational</tspan></text><text transform="rotate(90) translate(108.75,0) rotate(180)"><tspan x="0" y="4" style="font-family: Arial, sans-serif; font-size: 10px; fill: black; font-weight: normal; font-style: italic;">conceptual</tspan></text><text transform="rotate(209.99999999999994) translate(108.75,0) rotate(180)"><tspan x="0" y="4" style="font-family: Arial, sans-serif; font-size: 10px; fill: black; font-weight: normal; font-style: italic;">indexical</tspan></text><text transform="rotate(-60) translate(181.25,0) rotate(0)"><tspan x="0" y="4" style="font-family: Arial, sans-serif; font-size: 10px; fill: black; font-weight: normal; font-style: italic;">format</tspan></text><text transform="rotate(0) translate(181.25,0) rotate(0)"><tspan x="0" y="4" style="font-family: Arial, sans-serif; font-size: 10px; fill: black; font-weight: normal; font-style: italic;">food</tspan></text><text transform="rotate(59.99999999999997) translate(181.25,0) rotate(0)"><tspan x="0" y="4" style="font-family: Arial, sans-serif; font-size: 10px; fill: black; font-weight: normal; font-style: italic;">cultural symbols</tspan></text><text transform="rotate(119.99999999999997) translate(181.25,0) rotate(180)"><tspan x="0" y="4" style="font-family: Arial, sans-serif; font-size: 10px; fill: black; font-weight: normal; font-style: italic;">nature</tspan></text><text transform="rotate(180) translate(181.25,0) rotate(180)"><tspan x="0" y="4" style="font-family: Arial, sans-serif; font-size: 10px; fill: black; font-weight: normal; font-style: italic;">romanized</tspan></text><text transform="rotate(239.99999999999994) translate(181.25,0) rotate(180)"><tspan x="0" y="4" style="font-family: Arial, sans-serif; font-size: 10px; fill: black; font-weight: normal; font-style: italic;">names</tspan></text><text transform="rotate(-87.5) translate(253.75,0) rotate(0)"><tspan x="0" y="4" style="font-family: Arial, sans-serif; font-size: 10px; fill: black; font-weight: normal; font-style: italic;">buffet</tspan></text><text transform="rotate(-82.5) translate(253.75,0) rotate(0)"><tspan x="0" y="4" style="font-family: Arial, sans-serif; font-size: 10px; fill: black; font-weight: normal; font-style: italic;">express</tspan></text><text transform="rotate(-77.5) translate(253.75,0) rotate(0)"><tspan x="0" y="4" style="font-family: Arial, sans-serif; font-size: 10px; fill: black; font-weight: normal; font-style: italic;">wok</tspan></text><text transform="rotate(-72.5) translate(253.75,0) rotate(0)"><tspan x="0" y="4" style="font-family: Arial, sans-serif; font-size: 10px; fill: black; font-weight: normal; font-style: italic;">kitchen</tspan></text><text transform="rotate(-67.5) translate(253.75,0) rotate(0)"><tspan x="0" y="4" style="font-family: Arial, sans-serif; font-size: 10px; fill: black; font-weight: normal; font-style: italic;">house</tspan></text><text transform="rotate(-62.5) translate(253.75,0) rotate(0)"><tspan x="0" y="4" style="font-family: Arial, sans-serif; font-size: 10px; fill: black; font-weight: normal; font-style: italic;">cafe</tspan></text><text transform="rotate(-57.5) translate(253.75,0) rotate(0)"><tspan x="0" y="4" style="font-family: Arial, sans-serif; font-size: 10px; fill: black; font-weight: normal; font-style: italic;">chef</tspan></text><text transform="rotate(-52.50000000000001) translate(253.75,0) rotate(0)"><tspan x="0" y="4" style="font-family: Arial, sans-serif; font-size: 10px; fill: black; font-weight: normal; font-style: italic;">gourmet</tspan></text><text transform="rotate(-47.5) translate(253.75,0) rotate(0)"><tspan x="0" y="4" style="font-family: Arial, sans-serif; font-size: 10px; fill: black; font-weight: normal; font-style: italic;">bistro</tspan></text><text transform="rotate(-42.5) translate(253.75,0) rotate(0)"><tspan x="0" y="4" style="font-family: Arial, sans-serif; font-size: 10px; fill: black; font-weight: normal; font-style: italic;">grill</tspan></text><text transform="rotate(-37.5) translate(253.75,0) rotate(0)"><tspan x="0" y="4" style="font-family: Arial, sans-serif; font-size: 10px; fill: black; font-weight: normal; font-style: italic;">inn</tspan></text><text transform="rotate(-32.50000000000001) translate(253.75,0) rotate(0)"><tspan x="0" y="4" style="font-family: Arial, sans-serif; font-size: 10px; fill: black; font-weight: normal; font-style: italic;">super</tspan></text><text transform="rotate(-27.500000000000007) translate(253.75,0) rotate(0)"><tspan x="0" y="4" style="font-family: Arial, sans-serif; font-size: 10px; fill: black; font-weight: normal; font-style: italic;">wok</tspan></text><text transform="rotate(-22.500000000000014) translate(253.75,0) rotate(0)"><tspan x="0" y="4" style="font-family: Arial, sans-serif; font-size: 10px; fill: black; font-weight: normal; font-style: italic;">rice</tspan></text><text transform="rotate(-17.500000000000014) translate(253.75,0) rotate(0)"><tspan x="0" y="4" style="font-family: Arial, sans-serif; font-size: 10px; fill: black; font-weight: normal; font-style: italic;">noodle</tspan></text><text transform="rotate(-12.500000000000028) translate(253.75,0) rotate(0)"><tspan x="0" y="4" style="font-family: Arial, sans-serif; font-size: 10px; fill: black; font-weight: normal; font-style: italic;">hot</tspan></text><text transform="rotate(-7.500000000000028) translate(253.75,0) rotate(0)"><tspan x="0" y="4" style="font-family: Arial, sans-serif; font-size: 10px; fill: black; font-weight: normal; font-style: italic;">yummy</tspan></text><text transform="rotate(-2.5000000000000426) translate(253.75,0) rotate(0)"><tspan x="0" y="4" style="font-family: Arial, sans-serif; font-size: 10px; fill: black; font-weight: normal; font-style: italic;">roll</tspan></text><text transform="rotate(2.4999999999999574) translate(253.75,0) rotate(0)"><tspan x="0" y="4" style="font-family: Arial, sans-serif; font-size: 10px; fill: black; font-weight: normal; font-style: italic;">bbq</tspan></text><text transform="rotate(7.499999999999957) translate(253.75,0) rotate(0)"><tspan x="0" y="4" style="font-family: Arial, sans-serif; font-size: 10px; fill: black; font-weight: normal; font-style: italic;">seafood</tspan></text><text transform="rotate(12.499999999999943) translate(253.75,0) rotate(0)"><tspan x="0" y="4" style="font-family: Arial, sans-serif; font-size: 10px; fill: black; font-weight: normal; font-style: italic;">hibachi</tspan></text><text transform="rotate(17.499999999999943) translate(253.75,0) rotate(0)"><tspan x="0" y="4" style="font-family: Arial, sans-serif; font-size: 10px; fill: black; font-weight: normal; font-style: italic;">tasty</tspan></text><text transform="rotate(22.499999999999943) translate(253.75,0) rotate(0)"><tspan x="0" y="4" style="font-family: Arial, sans-serif; font-size: 10px; fill: black; font-weight: normal; font-style: italic;">bao</tspan></text><text transform="rotate(27.499999999999943) translate(253.75,0) rotate(0)"><tspan x="0" y="4" style="font-family: Arial, sans-serif; font-size: 10px; fill: black; font-weight: normal; font-style: italic;">chopsticks</tspan></text><text transform="rotate(32.499999999999986) translate(253.75,0) rotate(0)"><tspan x="0" y="4" style="font-family: Arial, sans-serif; font-size: 10px; fill: black; font-weight: normal; font-style: italic;">panda</tspan></text><text transform="rotate(37.499999999999986) translate(253.75,0) rotate(0)"><tspan x="0" y="4" style="font-family: Arial, sans-serif; font-size: 10px; fill: black; font-weight: normal; font-style: italic;">dragon</tspan></text><text transform="rotate(42.49999999999997) translate(253.75,0) rotate(0)"><tspan x="0" y="4" style="font-family: Arial, sans-serif; font-size: 10px; fill: black; font-weight: normal; font-style: italic;">golden</tspan></text><text transform="rotate(47.49999999999997) translate(253.75,0) rotate(0)"><tspan x="0" y="4" style="font-family: Arial, sans-serif; font-size: 10px; fill: black; font-weight: normal; font-style: italic;">star</tspan></text><text transform="rotate(52.49999999999997) translate(253.75,0) rotate(0)"><tspan x="0" y="4" style="font-family: Arial, sans-serif; font-size: 10px; fill: black; font-weight: normal; font-style: italic;">happy</tspan></text><text transform="rotate(57.49999999999994) translate(253.75,0) rotate(0)"><tspan x="0" y="4" style="font-family: Arial, sans-serif; font-size: 10px; fill: black; font-weight: normal; font-style: italic;">lucky</tspan></text><text transform="rotate(62.49999999999994) translate(253.75,0) rotate(0)"><tspan x="0" y="4" style="font-family: Arial, sans-serif; font-size: 10px; fill: black; font-weight: normal; font-style: italic;">jade</tspan></text><text transform="rotate(67.49999999999994) translate(253.75,0) rotate(0)"><tspan x="0" y="4" style="font-family: Arial, sans-serif; font-size: 10px; fill: black; font-weight: normal; font-style: italic;">ming</tspan></text><text transform="rotate(72.49999999999994) translate(253.75,0) rotate(0)"><tspan x="0" y="4" style="font-family: Arial, sans-serif; font-size: 10px; fill: black; font-weight: normal; font-style: italic;">fortune</tspan></text><text transform="rotate(77.49999999999991) translate(253.75,0) rotate(0)"><tspan x="0" y="4" style="font-family: Arial, sans-serif; font-size: 10px; fill: black; font-weight: normal; font-style: italic;">moon</tspan></text><text transform="rotate(82.49999999999994) translate(253.75,0) rotate(0)"><tspan x="0" y="4" style="font-family: Arial, sans-serif; font-size: 10px; fill: black; font-weight: normal; font-style: italic;">oriental</tspan></text><text transform="rotate(87.49999999999991) translate(253.75,0) rotate(0)"><tspan x="0" y="4" style="font-family: Arial, sans-serif; font-size: 10px; fill: black; font-weight: normal; font-style: italic;">grand</tspan></text><text transform="rotate(92.5) translate(253.75,0) rotate(180)"><tspan x="0" y="4" style="font-family: Arial, sans-serif; font-size: 10px; fill: black; font-weight: normal; font-style: italic;">garden</tspan></text><text transform="rotate(97.5) translate(253.75,0) rotate(180)"><tspan x="0" y="4" style="font-family: Arial, sans-serif; font-size: 10px; fill: black; font-weight: normal; font-style: italic;">panda</tspan></text><text transform="rotate(102.49999999999997) translate(253.75,0) rotate(180)"><tspan x="0" y="4" style="font-family: Arial, sans-serif; font-size: 10px; fill: black; font-weight: normal; font-style: italic;">dragon</tspan></text><text transform="rotate(107.49999999999997) translate(253.75,0) rotate(180)"><tspan x="0" y="4" style="font-family: Arial, sans-serif; font-size: 10px; fill: black; font-weight: normal; font-style: italic;">golden</tspan></text><text transform="rotate(112.49999999999997) translate(253.75,0) rotate(180)"><tspan x="0" y="4" style="font-family: Arial, sans-serif; font-size: 10px; fill: black; font-weight: normal; font-style: italic;">star</tspan></text><text transform="rotate(117.49999999999997) translate(253.75,0) rotate(180)"><tspan x="0" y="4" style="font-family: Arial, sans-serif; font-size: 10px; fill: black; font-weight: normal; font-style: italic;">jade</tspan></text><text transform="rotate(122.49999999999994) translate(253.75,0) rotate(180)"><tspan x="0" y="4" style="font-family: Arial, sans-serif; font-size: 10px; fill: black; font-weight: normal; font-style: italic;">moon</tspan></text><text transform="rotate(127.49999999999997) translate(253.75,0) rotate(180)"><tspan x="0" y="4" style="font-family: Arial, sans-serif; font-size: 10px; fill: black; font-weight: normal; font-style: italic;">bamboo</tspan></text><text transform="rotate(132.49999999999994) translate(253.75,0) rotate(180)"><tspan x="0" y="4" style="font-family: Arial, sans-serif; font-size: 10px; fill: black; font-weight: normal; font-style: italic;">sun</tspan></text><text transform="rotate(137.49999999999994) translate(253.75,0) rotate(180)"><tspan x="0" y="4" style="font-family: Arial, sans-serif; font-size: 10px; fill: black; font-weight: normal; font-style: italic;">lotus</tspan></text><text transform="rotate(142.49999999999994) translate(253.75,0) rotate(180)"><tspan x="0" y="4" style="font-family: Arial, sans-serif; font-size: 10px; fill: black; font-weight: normal; font-style: italic;">pearl</tspan></text><text transform="rotate(147.49999999999994) translate(253.75,0) rotate(180)"><tspan x="0" y="4" style="font-family: Arial, sans-serif; font-size: 10px; fill: black; font-weight: normal; font-style: italic;">ocean</tspan></text><text transform="rotate(152.5) translate(253.75,0) rotate(180)"><tspan x="0" y="4" style="font-family: Arial, sans-serif; font-size: 10px; fill: black; font-weight: normal; font-style: italic;">chen</tspan></text><text transform="rotate(157.49999999999997) translate(253.75,0) rotate(180)"><tspan x="0" y="4" style="font-family: Arial, sans-serif; font-size: 10px; fill: black; font-weight: normal; font-style: italic;">sun</tspan></text><text transform="rotate(162.49999999999997) translate(253.75,0) rotate(180)"><tspan x="0" y="4" style="font-family: Arial, sans-serif; font-size: 10px; fill: black; font-weight: normal; font-style: italic;">chow</tspan></text><text transform="rotate(167.5) translate(253.75,0) rotate(180)"><tspan x="0" y="4" style="font-family: Arial, sans-serif; font-size: 10px; fill: black; font-weight: normal; font-style: italic;">ling</tspan></text><text transform="rotate(172.49999999999994) translate(253.75,0) rotate(180)"><tspan x="0" y="4" style="font-family: Arial, sans-serif; font-size: 10px; fill: black; font-weight: normal; font-style: italic;">kung</tspan></text><text transform="rotate(177.49999999999994) translate(253.75,0) rotate(180)"><tspan x="0" y="4" style="font-family: Arial, sans-serif; font-size: 10px; fill: black; font-weight: normal; font-style: italic;">chung</tspan></text><text transform="rotate(182.49999999999994) translate(253.75,0) rotate(180)"><tspan x="0" y="4" style="font-family: Arial, sans-serif; font-size: 10px; fill: black; font-weight: normal; font-style: italic;">tung</tspan></text><text transform="rotate(187.49999999999994) translate(253.75,0) rotate(180)"><tspan x="0" y="4" style="font-family: Arial, sans-serif; font-size: 10px; fill: black; font-weight: normal; font-style: italic;">liang</tspan></text><text transform="rotate(192.49999999999994) translate(253.75,0) rotate(180)"><tspan x="0" y="4" style="font-family: Arial, sans-serif; font-size: 10px; fill: black; font-weight: normal; font-style: italic;">hung</tspan></text><text transform="rotate(197.4999999999999) translate(253.75,0) rotate(180)"><tspan x="0" y="4" style="font-family: Arial, sans-serif; font-size: 10px; fill: black; font-weight: normal; font-style: italic;">peng</tspan></text><text transform="rotate(202.49999999999994) translate(253.75,0) rotate(180)"><tspan x="0" y="4" style="font-family: Arial, sans-serif; font-size: 10px; fill: black; font-weight: normal; font-style: italic;">shen</tspan></text><text transform="rotate(207.4999999999999) translate(253.75,0) rotate(180)"><tspan x="0" y="4" style="font-family: Arial, sans-serif; font-size: 10px; fill: black; font-weight: normal; font-style: italic;">gao</tspan></text><text transform="rotate(212.49999999999994) translate(253.75,0) rotate(180)"><tspan x="0" y="4" style="font-family: Arial, sans-serif; font-size: 10px; fill: black; font-weight: normal; font-style: italic;">lee</tspan></text><text transform="rotate(217.49999999999994) translate(253.75,0) rotate(180)"><tspan x="0" y="4" style="font-family: Arial, sans-serif; font-size: 10px; fill: black; font-weight: normal; font-style: italic;">chen</tspan></text><text transform="rotate(222.49999999999994) translate(253.75,0) rotate(180)"><tspan x="0" y="4" style="font-family: Arial, sans-serif; font-size: 10px; fill: black; font-weight: normal; font-style: italic;">wong</tspan></text><text transform="rotate(227.49999999999994) translate(253.75,0) rotate(180)"><tspan x="0" y="4" style="font-family: Arial, sans-serif; font-size: 10px; fill: black; font-weight: normal; font-style: italic;">lin</tspan></text><text transform="rotate(232.49999999999994) translate(253.75,0) rotate(180)"><tspan x="0" y="4" style="font-family: Arial, sans-serif; font-size: 10px; fill: black; font-weight: normal; font-style: italic;">chang</tspan></text><text transform="rotate(237.49999999999994) translate(253.75,0) rotate(180)"><tspan x="0" y="4" style="font-family: Arial, sans-serif; font-size: 10px; fill: black; font-weight: normal; font-style: italic;">chan</tspan></text><text transform="rotate(242.49999999999994) translate(253.75,0) rotate(180)"><tspan x="0" y="4" style="font-family: Arial, sans-serif; font-size: 10px; fill: black; font-weight: normal; font-style: italic;">wang</tspan></text><text transform="rotate(247.49999999999994) translate(253.75,0) rotate(180)"><tspan x="0" y="4" style="font-family: Arial, sans-serif; font-size: 10px; fill: black; font-weight: normal; font-style: italic;">chow</tspan></text><text transform="rotate(252.4999999999999) translate(253.75,0) rotate(180)"><tspan x="0" y="4" style="font-family: Arial, sans-serif; font-size: 10px; fill: black; font-weight: normal; font-style: italic;">yang</tspan></text><text transform="rotate(257.49999999999994) translate(253.75,0) rotate(180)"><tspan x="0" y="4" style="font-family: Arial, sans-serif; font-size: 10px; fill: black; font-weight: normal; font-style: italic;">ling</tspan></text><text transform="rotate(262.4999999999999) translate(253.75,0) rotate(180)"><tspan x="0" y="4" style="font-family: Arial, sans-serif; font-size: 10px; fill: black; font-weight: normal; font-style: italic;">master</tspan></text><text transform="rotate(267.4999999999999) translate(253.75,0) rotate(180)"><tspan x="0" y="4" style="font-family: Arial, sans-serif; font-size: 10px; fill: black; font-weight: normal; font-style: italic;">kam</tspan></text></g></svg>