<svg xmlns="http://www.w3.org/2000/svg" width="805" height="640"><rect width="805" height="640" x="0" y="0" fill="#FFFFFF" id="background"/><g transform="translate(10,10)" id="visualization"><g><rect x="0" y="0" height="5.960227569288577" width="5" fill="black"><title>Remote Rural: 702</title></rect><rect x="0" y="17.960227569288577" height="7.904518329070754" width="5" fill="black"><title>Small Suburban: 931</title></rect><rect x="0" y="37.86474589835933" height="10.876141761052281" width="5" fill="black"><title>Fringe Rural: 1281</title></rect><rect x="0" y="60.74088765941161" height="11.011987403657145" width="5" fill="black"><title>Distant Rural: 1297</title></rect><rect x="0" y="83.75287506306876" height="11.99686831254246" width="5" fill="black"><title>Remote Town: 1413</title></rect><rect x="0" y="107.74974337561122" height="13.287401917288662" width="5" fill="black"><title>Fringe Town: 1565</title></rect><rect x="0" y="133.03714529289988" height="13.346834385928275" width="5" fill="black"><title>Midsize Suburban: 1572</title></rect><rect x="0" y="158.38397967882815" height="23.45884440732806" width="5" fill="black"><title>Distant Town: 2763</title></rect><rect x="780" y="96" height="27.848356733998003" width="5" fill="black"><title>Rural: 3280</title></rect><rect x="0" y="193.8428240861562" height="41.22066217791465" width="5" fill="black"><title>Midsize City: 4855</title></rect><rect x="0" y="247.06348626407086" height="45.3130121613863" width="5" fill="black"><title>Small City: 5337</title></rect><rect x="780" y="135.848356733998" height="48.74311463715924" width="5" fill="black"><title>Town: 5741</title></rect><rect x="0" y="304.37649842545716" height="132.69572176696767" width="5" fill="black"><title>Large City: 15629</title></rect><rect x="0" y="449.0722201924248" height="170.92777980757518" width="5" fill="black"><title>Large Suburban: 20132</title></rect><rect x="780" y="196.59147137115724" height="192.1791325225742" width="5" fill="black"><title>Suburban: 22635</title></rect><rect x="780" y="400.77060389373145" height="219.22939610626855" width="5" fill="black"><title>City: 25821</title></rect></g><g fill="none" stroke-opacity="1"><g style="mix-blend-mode: multiply;"><path d="M5,370.72435930894096C392.5,370.72435930894096,392.5,553.6521391165162,780,553.6521391165162" stroke="#9467bd" stroke-width="132.69572176696767"/><title>Large City → City: 15629</title></g><g style="mix-blend-mode: multiply;"><path d="M5,214.45315517511352C392.5,214.45315517511352,392.5,421.38093498268876,780,421.38093498268876" stroke="#e377c2" stroke-width="41.22066217791465"/><title>Midsize City → City: 4855</title></g><g style="mix-blend-mode: multiply;"><path d="M5,269.719992344764C392.5,269.719992344764,392.5,464.64777215233926,780,464.64777215233926" stroke="#cccccc" stroke-width="45.3130121613863"/><title>Small City → City: 5337</title></g><g style="mix-blend-mode: multiply;"><path d="M5,534.5361100962124C392.5,534.5361100962124,392.5,303.3067139899439,780,303.3067139899439" stroke="#8c564b" stroke-width="170.9277798075752"/><title>Large Suburban → Suburban: 20132</title></g><g style="mix-blend-mode: multiply;"><path d="M5,139.71056248586402C392.5,139.71056248586402,392.5,211.16940689319213,780,211.16940689319213" stroke="#7f7f7f" stroke-width="13.346834385928284"/><title>Midsize Suburban → Suburban: 1572</title></g><g style="mix-blend-mode: multiply;"><path d="M5,21.912486733823958C392.5,21.912486733823958,392.5,200.54373053569262,780,200.54373053569262" stroke="#cccccc" stroke-width="7.904518329070759"/><title>Small Suburban → Suburban: 931</title></g><g style="mix-blend-mode: multiply;"><path d="M5,114.39344433425555C392.5,114.39344433425555,392.5,154.48892600518474,780,154.48892600518474" stroke="#d62728" stroke-width="13.287401917288655"/><title>Fringe Town → Town: 1565</title></g><g style="mix-blend-mode: multiply;"><path d="M5,170.11340188249224C392.5,170.11340188249224,392.5,172.86204916749315,780,172.86204916749315" stroke="#ff7f0e" stroke-width="23.458844407328147"/><title>Distant Town → Town: 2763</title></g><g style="mix-blend-mode: multiply;"><path d="M5,89.75130921933996C392.5,89.75130921933996,392.5,141.8467908902692,780,141.8467908902692" stroke="#17becf" stroke-width="11.996868312542409"/><title>Remote Town → Town: 1413</title></g><g style="mix-blend-mode: multiply;"><path d="M5,43.30281677888546C392.5,43.30281677888546,392.5,107.39829844981472,780,107.39829844981472" stroke="#2ca02c" stroke-width="10.876141761052248"/><title>Fringe Rural → Rural: 1281</title></g><g style="mix-blend-mode: multiply;"><path d="M5,66.24688136124017C392.5,66.24688136124017,392.5,118.3423630321694,780,118.3423630321694" stroke="#1f77b4" stroke-width="11.011987403657114"/><title>Distant Rural → Rural: 1297</title></g><g style="mix-blend-mode: multiply;"><path d="M5,2.9801137846442924C392.5,2.9801137846442924,392.5,98.98011378464429,780,98.98011378464429" stroke="#bcbd22" stroke-width="5.960227569288585"/><title>Remote Rural → Rural: 702</title></g></g><g><text x="9" y="2.9801137846442884" text-anchor="start"><tspan alignment-baseline="middle" x="9" style="font-family: Arial, sans-serif; font-size: 10px; fill: black; font-weight: bold;">Remote Rural</tspan></text><text x="9" y="21.912486733823954" text-anchor="start"><tspan alignment-baseline="middle" x="9" style="font-family: Arial, sans-serif; font-size: 10px; fill: black; font-weight: bold;">Small Suburban</tspan></text><text x="9" y="43.30281677888547" text-anchor="start"><tspan alignment-baseline="middle" x="9" style="font-family: Arial, sans-serif; font-size: 10px; fill: black; font-weight: bold;">Fringe Rural</tspan></text><text x="9" y="66.24688136124018" text-anchor="start"><tspan alignment-baseline="middle" x="9" style="font-family: Arial, sans-serif; font-size: 10px; fill: black; font-weight: bold;">Distant Rural</tspan></text><text x="9" y="89.75130921933999" text-anchor="start"><tspan alignment-baseline="middle" x="9" style="font-family: Arial, sans-serif; font-size: 10px; fill: black; font-weight: bold;">Remote Town</tspan></text><text x="9" y="114.39344433425555" text-anchor="start"><tspan alignment-baseline="middle" x="9" style="font-family: Arial, sans-serif; font-size: 10px; fill: black; font-weight: bold;">Fringe Town</tspan></text><text x="9" y="139.71056248586402" text-anchor="start"><tspan alignment-baseline="middle" x="9" style="font-family: Arial, sans-serif; font-size: 10px; fill: black; font-weight: bold;">Midsize Suburban</tspan></text><text x="9" y="170.11340188249218" text-anchor="start"><tspan alignment-baseline="middle" x="9" style="font-family: Arial, sans-serif; font-size: 10px; fill: black; font-weight: bold;">Distant Town</tspan></text><text x="776" y="109.924178366999" text-anchor="end"><tspan alignment-baseline="middle" x="776" style="font-family: Arial, sans-serif; font-size: 10px; fill: black; font-weight: bold;">Rural</tspan></text><text x="9" y="214.45315517511352" text-anchor="start"><tspan alignment-baseline="middle" x="9" style="font-family: Arial, sans-serif; font-size: 10px; fill: black; font-weight: bold;">Midsize City</tspan></text><text x="9" y="269.719992344764" text-anchor="start"><tspan alignment-baseline="middle" x="9" style="font-family: Arial, sans-serif; font-size: 10px; fill: black; font-weight: bold;">Small City</tspan></text><text x="776" y="160.21991405257762" text-anchor="end"><tspan alignment-baseline="middle" x="776" style="font-family: Arial, sans-serif; font-size: 10px; fill: black; font-weight: bold;">Town</tspan></text><text x="9" y="370.72435930894096" text-anchor="start"><tspan alignment-baseline="middle" x="9" style="font-family: Arial, sans-serif; font-size: 10px; fill: black; font-weight: bold;">Large City</tspan></text><text x="9" y="534.5361100962124" text-anchor="start"><tspan alignment-baseline="middle" x="9" style="font-family: Arial, sans-serif; font-size: 10px; fill: black; font-weight: bold;">Large Suburban</tspan></text><text x="776" y="292.6810376324444" text-anchor="end"><tspan alignment-baseline="middle" x="776" style="font-family: Arial, sans-serif; font-size: 10px; fill: black; font-weight: bold;">Suburban</tspan></text><text x="776" y="510.38530194686575" text-anchor="end"><tspan alignment-baseline="middle" x="776" style="font-family: Arial, sans-serif; font-size: 10px; fill: black; font-weight: bold;">City</tspan></text></g><g><text x="2.5" y="-4" text-anchor="middle" style="font-family: Arial, sans-serif; font-size: 12px; fill: rgb(123, 123, 123); font-weight: bold;">LOC_NAME</text><text x="782.5" y="92" text-anchor="middle" style="font-family: Arial, sans-serif; font-size: 12px; fill: rgb(123, 123, 123); font-weight: bold;">group</text></g></g></svg>